<svg width="123" height="35" viewBox="0 0 123 35" fill="none" xmlns="http://www.w3.org/2000/svg">
<path d="M54.4634 7.07031C54.2898 7.07031 54.1448 7.01093 54.0283 6.89217C53.9118 6.77112 53.8513 6.62496 53.8467 6.45367C53.8445 6.28238 53.905 6.13963 54.0283 6.02544C54.1516 5.90896 54.2967 5.85073 54.4634 5.85073C54.6324 5.85073 54.7786 5.91011 54.9019 6.02887C55.0252 6.14763 55.0846 6.28923 55.08 6.45367C55.0777 6.56786 55.0481 6.67178 54.991 6.76541C54.9361 6.85905 54.8619 6.93328 54.7683 6.98809C54.6769 7.0429 54.5753 7.07031 54.4634 7.07031ZM55.1074 3.1649C54.9339 3.1649 54.7888 3.10552 54.6724 2.98676C54.5559 2.86571 54.4954 2.71954 54.4908 2.54825C54.4885 2.37696 54.549 2.23422 54.6724 2.12003C54.7957 2.00355 54.9407 1.94531 55.1074 1.94531C55.2764 1.94531 55.4226 2.00469 55.5459 2.12345C55.6693 2.24222 55.7286 2.38382 55.7241 2.54825C55.7218 2.66245 55.6921 2.76636 55.635 2.86C55.5802 2.95364 55.506 3.02787 55.4123 3.08268C55.321 3.13749 55.2193 3.1649 55.1074 3.1649Z" fill="black" style="fill:black;fill-opacity:1;"/>
<path d="M48.607 8.9892C48.4699 8.9892 48.3489 8.97778 48.2438 8.95494C48.1411 8.93438 48.0703 8.91383 48.0314 8.89327L48.3603 8.18071C48.5476 8.23095 48.7143 8.2458 48.8605 8.22524C49.0089 8.20697 49.1494 8.13503 49.2818 8.00942C49.4166 7.88609 49.5571 7.69196 49.7032 7.42703L49.9293 7.01594L48.8742 1.75391H49.7169L50.4706 5.96079H50.5254L52.6768 1.75391H53.5881L50.361 7.77646C50.2102 8.05738 50.0447 8.28691 49.8642 8.46505C49.6838 8.64319 49.4885 8.77451 49.2784 8.85902C49.0683 8.9458 48.8445 8.9892 48.607 8.9892Z" fill="black" style="fill:black;fill-opacity:1;"/>
<path d="M42.7146 7.01604L43.8794 0H44.6879L44.2631 2.58991H44.3316C44.4047 2.49855 44.5063 2.38207 44.6365 2.24047C44.7667 2.09659 44.9414 1.96869 45.1606 1.85678C45.3799 1.74259 45.6608 1.68549 46.0034 1.68549C46.4464 1.68549 46.8176 1.79626 47.1168 2.0178C47.4182 2.23933 47.6295 2.55336 47.7505 2.95989C47.8739 3.36642 47.8898 3.84603 47.7985 4.39873C47.7071 4.95599 47.5324 5.43903 47.2743 5.84784C47.0185 6.25437 46.7034 6.56954 46.3288 6.79336C45.9565 7.0149 45.5512 7.12567 45.1127 7.12567C44.7747 7.12567 44.5131 7.06971 44.3282 6.9578C44.1454 6.84361 44.0107 6.71457 43.9239 6.57069C43.8394 6.42452 43.7743 6.30347 43.7286 6.20755H43.6327L43.4957 7.01604H42.7146ZM43.9479 4.38503C43.8839 4.78242 43.8851 5.13299 43.9513 5.43675C44.0175 5.73822 44.1489 5.9746 44.3453 6.14589C44.5417 6.31489 44.8021 6.3994 45.1264 6.3994C45.4644 6.3994 45.7613 6.31032 46.0171 6.13218C46.2729 5.95176 46.483 5.70967 46.6474 5.40591C46.8119 5.09988 46.9261 4.75958 46.99 4.38503C47.0494 4.01504 47.0471 3.68159 46.9832 3.38469C46.9215 3.0855 46.7913 2.84912 46.5926 2.67555C46.3962 2.49969 46.1267 2.41176 45.7841 2.41176C45.4552 2.41176 45.164 2.49512 44.9105 2.66185C44.6593 2.82629 44.4515 3.05696 44.287 3.35386C44.1249 3.64848 44.0118 3.9922 43.9479 4.38503Z" fill="black" style="fill:black;fill-opacity:1;"/>
<path d="M35.8802 7.12567C35.4394 7.12567 35.0694 7.0149 34.7702 6.79336C34.471 6.56954 34.2598 6.25437 34.1364 5.84784C34.0154 5.43903 34.0005 4.95599 34.0919 4.39873C34.1855 3.84603 34.3603 3.36642 34.616 2.95989C34.8741 2.55336 35.1904 2.23933 35.565 2.0178C35.9395 1.79626 36.3484 1.68549 36.7914 1.68549C37.134 1.68549 37.3955 1.74259 37.5759 1.85678C37.7586 1.96869 37.8911 2.09659 37.9733 2.24047C38.0555 2.38207 38.1184 2.49855 38.1617 2.58991H38.2303L38.6619 0H39.4704L38.3056 7.01604H37.5245L37.6616 6.20755H37.5657C37.4903 6.30347 37.3852 6.42452 37.2505 6.57069C37.1157 6.71457 36.9376 6.84361 36.7161 6.9578C36.4968 7.06971 36.2182 7.12567 35.8802 7.12567ZM36.0789 6.3994C36.4032 6.3994 36.6932 6.31489 36.949 6.14589C37.2071 5.9746 37.4218 5.73822 37.5931 5.43675C37.7644 5.13299 37.8831 4.78242 37.9493 4.38503C38.0156 3.9922 38.0133 3.64848 37.9425 3.35386C37.8717 3.05696 37.7358 2.82629 37.5348 2.66185C37.3338 2.49512 37.0678 2.41176 36.7366 2.41176C36.3963 2.41176 36.1006 2.49969 35.8493 2.67555C35.5981 2.84912 35.3937 3.0855 35.2361 3.38469C35.0785 3.68159 34.9689 4.01504 34.9072 4.38503C34.8456 4.75958 34.8444 5.09988 34.9038 5.40591C34.9632 5.70967 35.0888 5.95176 35.2806 6.13218C35.4748 6.31032 35.7408 6.3994 36.0789 6.3994Z" fill="black" style="fill:black;fill-opacity:1;"/>
<path d="M30.4588 7.12572C29.9541 7.12572 29.5373 7.01381 29.2084 6.78999C28.8795 6.56389 28.65 6.24871 28.5198 5.84447C28.3896 5.43794 28.3691 4.96518 28.4581 4.42619C28.5472 3.88719 28.7242 3.41215 28.9891 3.00105C29.2541 2.58767 29.5841 2.26565 29.9792 2.03498C30.3743 1.80202 30.8082 1.68555 31.281 1.68555C31.5551 1.68555 31.8189 1.73122 32.0724 1.82258C32.3259 1.91393 32.5451 2.06238 32.7301 2.26793C32.9151 2.4712 33.0442 2.74069 33.1172 3.07642C33.1903 3.41215 33.1858 3.82553 33.1035 4.31656L33.0487 4.65914H28.9926L29.1022 3.96028H32.3362C32.3887 3.66338 32.375 3.39845 32.295 3.16549C32.2174 2.93254 32.0815 2.74869 31.8874 2.61394C31.6955 2.47919 31.4523 2.41182 31.1577 2.41182C30.8539 2.41182 30.5707 2.49404 30.3081 2.65847C30.0454 2.82063 29.8262 3.02618 29.6503 3.27512C29.4745 3.52178 29.3648 3.773 29.3214 4.02879L29.2255 4.63174C29.157 5.06795 29.1673 5.4151 29.2564 5.67318C29.3477 5.93126 29.5064 6.11739 29.7325 6.23158C29.9586 6.34349 30.2418 6.39945 30.5821 6.39945C30.7991 6.39945 30.999 6.36976 31.1817 6.31038C31.3644 6.24871 31.5277 6.15736 31.6715 6.03631C31.8154 5.91298 31.9365 5.75997 32.0347 5.57726L32.7747 5.79651C32.649 6.06144 32.472 6.29439 32.2437 6.49537C32.0176 6.69407 31.7526 6.84937 31.4489 6.96128C31.1474 7.07091 30.8174 7.12572 30.4588 7.12572Z" fill="black" style="fill:black;fill-opacity:1;"/>
<path d="M24.8182 7.01515L25.6952 1.75312H26.4763L26.3393 2.5479H26.3941C26.5311 2.28754 26.7401 2.07629 27.021 1.91413C27.3019 1.75198 27.6 1.6709 27.9152 1.6709C27.9768 1.6709 28.0511 1.67204 28.1378 1.67432C28.2246 1.67432 28.292 1.67775 28.34 1.6846L28.2029 2.50679C28.1755 2.49994 28.1139 2.48966 28.0179 2.47596C27.922 2.45997 27.8192 2.45198 27.7096 2.45198C27.4538 2.45198 27.2174 2.50565 27.0005 2.61299C26.7835 2.71805 26.6019 2.86422 26.4558 3.0515C26.3096 3.23649 26.216 3.44775 26.1749 3.68527L25.6267 7.01515H24.8182Z" fill="black" style="fill:black;fill-opacity:1;"/>
<path d="M21.377 7.12572C20.8723 7.12572 20.4555 7.01381 20.1266 6.78999C19.7977 6.56389 19.5682 6.24871 19.438 5.84447C19.3078 5.43794 19.2873 4.96518 19.3764 4.42619C19.4654 3.88719 19.6424 3.41215 19.9074 3.00105C20.1723 2.58767 20.5023 2.26565 20.8974 2.03498C21.2925 1.80202 21.7265 1.68555 22.1992 1.68555C22.4733 1.68555 22.7371 1.73122 22.9906 1.82258C23.2441 1.91393 23.4633 2.06238 23.6483 2.26793C23.8333 2.4712 23.9624 2.74069 24.0354 3.07642C24.1085 3.41215 24.104 3.82553 24.0217 4.31656L23.9669 4.65914H19.9108L20.0204 3.96028H23.2544C23.3069 3.66338 23.2932 3.39845 23.2133 3.16549C23.1356 2.93254 22.9997 2.74869 22.8056 2.61394C22.6137 2.47919 22.3705 2.41182 22.0759 2.41182C21.7721 2.41182 21.4889 2.49404 21.2263 2.65847C20.9636 2.82063 20.7444 3.02618 20.5685 3.27512C20.3927 3.52178 20.2831 3.773 20.2397 4.02879L20.1437 4.63174C20.0752 5.06795 20.0855 5.4151 20.1746 5.67318C20.2659 5.93126 20.4247 6.11739 20.6508 6.23158C20.8769 6.34349 21.1601 6.39945 21.5004 6.39945C21.7173 6.39945 21.9172 6.36976 22.0999 6.31038C22.2826 6.24871 22.4459 6.15736 22.5898 6.03631C22.7336 5.91298 22.8547 5.75997 22.9529 5.57726L23.6929 5.79651C23.5673 6.06144 23.3903 6.29439 23.1619 6.49537C22.9358 6.69407 22.6708 6.84937 22.3671 6.96128C22.0656 7.07091 21.7356 7.12572 21.377 7.12572Z" fill="black" style="fill:black;fill-opacity:1;"/>
<path d="M12.7175 7.01594L11.9912 1.75391H12.8408L13.3067 5.78265H13.3615L15.1567 1.75391H16.02L16.4585 5.76895H16.5133L18.3221 1.75391H19.1717L16.6914 7.01594H15.8966L15.417 2.97349H15.3348L13.5123 7.01594H12.7175Z" fill="black" style="fill:black;fill-opacity:1;"/>
<path d="M8.12006 7.12572C7.63588 7.12572 7.23049 7.01038 6.9039 6.77971C6.57731 6.54904 6.34663 6.22587 6.21189 5.81021C6.07942 5.39455 6.05773 4.91037 6.1468 4.35767C6.23358 3.81868 6.40602 3.34934 6.66409 2.94967C6.92445 2.54771 7.24762 2.2371 7.63359 2.01785C8.02185 1.79631 8.44893 1.68555 8.91484 1.68555C9.39902 1.68555 9.80327 1.80202 10.1276 2.03498C10.4542 2.26565 10.6848 2.58996 10.8196 3.00791C10.9543 3.42357 10.9772 3.91003 10.8881 4.4673C10.8013 5.00172 10.6266 5.46877 10.364 5.86845C10.1036 6.26584 9.78043 6.57531 9.39446 6.79684C9.01077 7.01609 8.58597 7.12572 8.12006 7.12572ZM8.13376 6.39945C8.50375 6.39945 8.82463 6.30467 9.09641 6.11511C9.37047 5.92555 9.59201 5.67546 9.76102 5.36486C9.93231 5.05425 10.0476 4.71852 10.107 4.35767C10.1618 4.01509 10.1596 3.69649 10.1002 3.40187C10.0408 3.10497 9.91404 2.86631 9.71991 2.68588C9.52578 2.50317 9.25286 2.41182 8.90114 2.41182C8.53115 2.41182 8.20799 2.50774 7.93164 2.69958C7.65757 2.89143 7.43604 3.1438 7.26703 3.45669C7.09803 3.76958 6.98498 4.10645 6.92788 4.4673C6.87307 4.80988 6.87421 5.12848 6.9313 5.4231C6.99069 5.71543 7.11744 5.95181 7.31157 6.13224C7.50798 6.31038 7.78205 6.39945 8.13376 6.39945Z" fill="black" style="fill:black;fill-opacity:1;"/>
<path d="M0 7.01604L1.16477 0H3.53543C4.08355 0 4.51635 0.0982064 4.83381 0.294619C5.15355 0.491032 5.36937 0.757102 5.48128 1.09283C5.59547 1.42856 5.61831 1.80425 5.5498 2.21992C5.48128 2.63101 5.33397 3.00557 5.10787 3.34358C4.88405 3.68159 4.5803 3.95109 4.19661 4.15207C3.8152 4.35305 3.35272 4.45354 2.80916 4.45354H1.10996L1.23329 3.69987H2.90508C3.27963 3.69987 3.59252 3.63477 3.84375 3.50459C4.09497 3.37441 4.29139 3.19741 4.43299 2.9736C4.57459 2.74978 4.66822 2.49855 4.7139 2.21992C4.75958 1.93672 4.74816 1.68549 4.67964 1.46624C4.61341 1.24471 4.47524 1.07113 4.26512 0.945521C4.05729 0.817624 3.76381 0.753676 3.38469 0.753676H1.89104L0.849599 7.01604H0Z" fill="black" style="fill:black;fill-opacity:1;"/>
<path d="M37.4957 17.9727H40.2688L36.4445 31.9903H30.9532L27.1014 17.9727H29.8745L33.0164 29.3356H34.3774L37.4918 17.9727H37.4957Z" fill="black" style="fill:black;fill-opacity:1;"/>
<path d="M45.2227 12.209V14.8676H42.5633V12.209H45.2227ZM42.5633 17.863H45.2227V31.9668H42.5633V17.863Z" fill="black" style="fill:black;fill-opacity:1;"/>
<path d="M48.0823 31.9943V17.9766H50.8554V19.5585H50.9103C51.1927 19.1239 51.6987 18.748 52.4243 18.4269C53.15 18.1058 53.9658 17.9453 54.8719 17.9453C55.6446 17.9453 56.4213 18.0197 57.194 18.1724C57.9667 18.3251 58.6766 18.6423 59.316 19.1317C59.9593 19.6212 60.477 20.3299 60.8732 21.25C61.2693 22.1741 61.4694 23.4153 61.4694 24.9815V31.9904H58.6374V25.1773C58.6374 24.2533 58.5629 23.4975 58.4099 22.9024C58.2569 22.3072 58.0294 21.8413 57.7156 21.5045C57.4058 21.1639 57.0096 20.9289 56.5272 20.7997C56.0447 20.6666 55.4838 20.6 54.8445 20.6C54.2051 20.6 53.5971 20.6666 53.0872 20.7997C52.5773 20.9329 52.1537 21.1678 51.8124 21.5045C51.4712 21.8452 51.2123 22.2916 51.0319 22.8476C50.8515 23.4036 50.7612 24.1045 50.7612 24.9541V31.9904H48.0705L48.0823 31.9943Z" fill="black" style="fill:black;fill-opacity:1;"/>
<path d="M67.6472 29.3356H73.4524V31.9942H64.9879V20.6313H62.6109V17.9727H64.9879V12.2051H67.6512V17.9727H72.3776V20.6313H67.6512V29.3356H67.6472Z" fill="black" style="fill:black;fill-opacity:1;"/>
<path d="M81.1246 18.0586C82.3523 18.0586 83.3956 18.2661 84.2546 18.6812C85.1136 19.0962 85.804 19.6757 86.3217 20.4197C86.8395 21.1636 87.2003 22.0446 87.3965 23.0627C87.5926 24.0807 87.6475 25.181 87.5534 26.3713H77.1629C77.1629 27.033 77.2649 27.5694 77.4728 27.9806C77.6807 28.3956 77.9631 28.7167 78.324 28.9399C78.6809 29.167 79.0888 29.3197 79.5399 29.4058C79.991 29.492 80.4734 29.5311 80.9833 29.5311C81.3403 29.5311 81.709 29.5155 82.0855 29.4881C82.4621 29.4607 82.8112 29.3941 83.1328 29.2923C83.4545 29.1905 83.7408 29.0339 83.9957 28.8263C84.2507 28.6188 84.4233 28.3369 84.5214 27.9767H87.2396C87.0513 28.7324 86.761 29.3667 86.3766 29.8835C85.9883 30.4004 85.5255 30.8193 84.9881 31.1404C84.4507 31.4615 83.8467 31.6964 83.176 31.8452C82.5052 31.994 81.7914 32.0723 81.0383 32.0723C78.7554 32.0723 77.0884 31.4772 76.0411 30.2908C74.9939 29.1043 74.4683 27.3619 74.4683 25.0635C74.4683 24.0455 74.6055 23.1097 74.8801 22.2521C75.1547 21.3946 75.5626 20.6546 76.1117 20.032C76.657 19.4095 77.3473 18.9239 78.1789 18.5754C79.0104 18.227 79.991 18.0547 81.1246 18.0547V18.0586ZM84.9175 23.881C84.8979 23.6539 84.8508 23.3485 84.7763 22.9609C84.7018 22.5732 84.537 22.1973 84.2821 21.8293C84.0271 21.4612 83.6545 21.148 83.1642 20.8817C82.6739 20.6194 82.0032 20.4862 81.152 20.4862C80.3793 20.4862 79.736 20.5998 79.2261 20.8269C78.7162 21.054 78.3044 21.3359 77.9945 21.6766C77.6846 22.0172 77.465 22.3814 77.3434 22.7807C77.2218 23.1762 77.159 23.5443 77.159 23.881H84.9175Z" fill="black" style="fill:black;fill-opacity:1;"/>
<path d="M98.7086 17.9727H101.372V31.9903H89.8754V17.9727H92.5347V29.3356H98.7086V17.9727Z" fill="black" style="fill:black;fill-opacity:1;"/>
<path d="M123 17.9727V31.9903H120.337V20.6274H114.928V31.9903H112.264V20.6274H106.855V31.9903H104.196V17.9727H122.996H123Z" fill="black" style="fill:black;fill-opacity:1;"/>
<path d="M22.2266 34.6579H16.5512V20.0434H14.6841V14.3779H22.2266V34.6579Z" fill="url(#paint0_linear_818_529)"/>
<path d="M22.25 34.7885H6.24165V20.1538H6.10352e-05V14.4883H11.917V29.123H22.25V34.7885Z" fill="url(#paint1_linear_818_529)"/>
<defs>
<linearGradient id="paint0_linear_818_529" x1="18.4554" y1="15.9457" x2="18.4554" y2="44.0836" gradientUnits="userSpaceOnUse">
<stop stop-color="#FFAE00" style="stop-color:#FFAE00;stop-color:color(display-p3 1.0000 0.6824 0.0000);stop-opacity:1;"/>
<stop offset="0.46" stop-color="#3CAE66" style="stop-color:#3CAE66;stop-color:color(display-p3 0.2353 0.6824 0.4000);stop-opacity:1;"/>
<stop offset="1" stop-color="#009086" style="stop-color:#009086;stop-color:color(display-p3 0.0000 0.5647 0.5255);stop-opacity:1;"/>
</linearGradient>
<linearGradient id="paint1_linear_818_529" x1="6.10352e-05" y1="24.6384" x2="22.25" y2="24.6384" gradientUnits="userSpaceOnUse">
<stop stop-color="#3CAE66" style="stop-color:#3CAE66;stop-color:color(display-p3 0.2353 0.6824 0.4000);stop-opacity:1;"/>
<stop offset="1" stop-color="#009086" style="stop-color:#009086;stop-color:color(display-p3 0.0000 0.5647 0.5255);stop-opacity:1;"/>
</linearGradient>
</defs>
</svg>
