<svg width="115" height="33" viewBox="0 0 115 33" fill="none" xmlns="http://www.w3.org/2000/svg">
<g clip-path="url(#clip0_1_1170)">
<path d="M10.0539 9.82676C9.0099 9.82676 8.11029 9.90696 7.35512 10.0674C6.59994 10.2278 5.98369 10.5417 5.505 11.0077C5.02631 11.4752 4.67004 12.1459 4.43895 13.0199C4.20648 13.8952 4.09094 15.0334 4.09094 16.4328C4.09094 18.037 4.22849 19.3065 4.50498 20.2399C4.78009 21.1734 5.17212 21.8662 5.6797 22.3184C6.18727 22.7706 6.81177 23.0555 7.55182 23.1717C8.29186 23.2878 9.12545 23.3473 10.0539 23.3473C10.7789 23.3473 11.4474 23.3183 12.0567 23.2602C12.6661 23.2021 13.2108 23.0638 13.6895 22.8439C14.1682 22.6254 14.574 22.2963 14.9083 21.8593C15.2411 21.4223 15.5107 20.8235 15.7129 20.0657H19.8919C19.6016 21.6699 19.1147 22.9615 18.4338 23.9378C17.7515 24.9155 16.9606 25.6664 16.0623 26.1905C15.1627 26.716 14.1902 27.059 13.1462 27.2194C12.1021 27.3798 11.0718 27.46 10.0553 27.46C8.89435 27.46 7.71964 27.3439 6.52979 27.1102C5.33994 26.8765 4.25876 26.3883 3.28762 25.6443C2.3151 24.9003 1.52554 23.8064 0.916172 22.3627C0.306804 20.919 0.00280762 19.0009 0.00280762 16.6085C0.00280762 14.2161 0.306804 12.262 0.916172 10.8321C1.52554 9.40359 2.3151 8.30972 3.28762 7.55051C4.25876 6.79269 5.33994 6.29623 6.52979 6.06252C7.71964 5.82881 8.89435 5.71265 10.0553 5.71265C11.0705 5.71265 12.1008 5.79977 13.1462 5.9754C14.1902 6.15102 15.1696 6.5009 16.0843 7.02501C16.9977 7.55051 17.7887 8.30834 18.4558 9.29987C19.1229 10.2914 19.6016 11.6052 19.8919 13.2384H15.757C15.409 11.8098 14.7776 10.8833 13.8642 10.4601C12.9508 10.0383 11.6812 9.82537 10.0553 9.82537L10.0539 9.82676Z" fill="white"/>
<path d="M36.43 13.5468V9.82678H24.6787V5.6698H40.5209V23.2602H43.4371V27.3729H36.9954L36.5607 25.0538H36.43C36.082 25.6955 35.386 26.25 34.3406 26.7161C33.2965 27.1835 31.9898 27.4158 30.423 27.4158C27.87 27.4158 25.9112 26.7382 24.5467 25.3816C23.1821 24.025 22.5012 22.2963 22.5012 20.1957C22.5012 18.0951 23.3128 16.3527 24.9387 15.2297C26.5632 14.1068 28.7393 13.5454 31.467 13.5454H36.4286L36.43 13.5468ZM36.43 17.2654H32.0778C31.1493 17.2654 30.3515 17.3677 29.6843 17.571C29.0172 17.7757 28.4725 18.0301 28.0516 18.3371C27.6306 18.6427 27.3253 18.994 27.1382 19.3867C26.9497 19.7808 26.8548 20.1681 26.8548 20.5456C26.8548 21.3048 27.0942 21.9312 27.5729 22.4277C28.0516 22.9242 28.6389 23.274 29.3349 23.4773C30.031 23.682 30.7999 23.747 31.6417 23.6737C32.4836 23.6018 33.2525 23.3971 33.9485 23.0611C34.6446 22.7264 35.2319 22.2521 35.7106 21.6395C36.1893 21.0268 36.4286 20.2981 36.4286 19.4517V17.264L36.43 17.2654Z" fill="white"/>
<path d="M49.5735 12.0145C49.6313 12.5691 49.9655 13.0061 50.5749 13.3269C51.1843 13.6477 51.9463 13.9326 52.8597 14.1802C53.773 14.4277 54.7524 14.6904 55.7978 14.9684C56.8419 15.2464 57.8144 15.6322 58.714 16.1273C59.6136 16.6237 60.3605 17.2723 60.9562 18.0744C61.5504 18.8765 61.8489 19.9192 61.8489 21.2025C61.8489 21.9907 61.6962 22.7638 61.3922 23.5216C61.0868 24.2808 60.6013 24.9584 59.9341 25.5558C59.2656 26.1546 58.4031 26.6428 57.344 27.0217C56.2848 27.4006 55.0152 27.5901 53.5351 27.5901C52.3452 27.5901 51.2351 27.4075 50.2049 27.0424C49.1746 26.6774 48.2681 26.1671 47.484 25.5116C46.7 24.8561 46.07 24.0831 45.5913 23.1925C45.1126 22.3033 44.8292 21.3325 44.7426 20.2829H49.2255C49.3121 20.7199 49.4497 21.1582 49.6395 21.5952C49.828 22.0322 50.1031 22.4263 50.4662 22.7762C50.8294 23.1261 51.286 23.4041 51.8376 23.6073C52.3879 23.812 53.0564 23.913 53.8391 23.913C54.7964 23.913 55.5434 23.8037 56.0812 23.5852C56.6177 23.3667 57.0166 23.1109 57.2779 22.8191C57.5393 22.5273 57.6988 22.2576 57.7566 22.0101C57.8144 21.7626 57.8433 21.6091 57.8433 21.551C57.9011 20.5885 57.6397 19.8735 57.0592 19.4075C56.4787 18.9415 55.7318 18.5695 54.8171 18.2915C53.9037 18.0149 52.9092 17.7812 51.8363 17.5918C50.762 17.4023 49.7619 17.1036 48.8334 16.6943C47.9049 16.2863 47.1291 15.7027 46.5046 14.9435C45.8801 14.1857 45.5693 13.1347 45.5693 11.7933C45.5693 11.005 45.7068 10.2472 45.9833 9.51842C46.2584 8.78963 46.6945 8.13276 47.2887 7.54917C47.8829 6.96559 48.645 6.49956 49.5735 6.1483C50.502 5.79843 51.6189 5.6228 52.9243 5.6228C53.9972 5.6228 55.0275 5.75418 56.0152 6.01693C57.0014 6.27968 57.8722 6.68072 58.626 7.22005C59.3798 7.76076 59.9823 8.44529 60.4321 9.27641C60.8819 10.1075 61.1061 11.0783 61.1061 12.186H56.7538C56.6947 11.8361 56.5943 11.4932 56.4499 11.1571C56.304 10.8225 56.0936 10.5224 55.8185 10.2596C55.542 9.9969 55.1802 9.7784 54.7304 9.60277C54.2806 9.42714 53.7221 9.32619 53.055 9.29715C52.2998 9.26811 51.6905 9.34832 51.2269 9.53778C50.762 9.72723 50.4071 9.96924 50.1608 10.2596C49.9146 10.5514 49.7468 10.8584 49.6601 11.1779C49.5735 11.4987 49.5432 11.7767 49.5735 12.009V12.0145Z" fill="white"/>
<path d="M78.3857 13.5468V9.82678H66.6344V5.6698H82.4766V23.2602H85.3928V27.3729H78.9511L78.5164 25.0538H78.3857C78.0377 25.6955 77.3417 26.25 76.2963 26.7161C75.2522 27.1835 73.9454 27.4158 72.3787 27.4158C69.8257 27.4158 67.8669 26.7382 66.5023 25.3816C65.1378 24.025 64.4569 22.2963 64.4569 20.1957C64.4569 18.0951 65.2685 16.3527 66.8944 15.2297C68.5189 14.1068 70.695 13.5454 73.4227 13.5454H78.3843L78.3857 13.5468ZM78.3857 17.2654H74.0335C73.105 17.2654 72.3072 17.3677 71.64 17.571C70.9729 17.7757 70.4282 18.0301 70.0072 18.3371C69.5863 18.6427 69.281 18.994 69.0939 19.3867C68.9054 19.7808 68.8105 20.1681 68.8105 20.5456C68.8105 21.3048 69.0499 21.9312 69.5286 22.4277C70.0072 22.9242 70.5946 23.274 71.2906 23.4773C71.9867 23.682 72.7556 23.747 73.5974 23.6737C74.4393 23.6018 75.2082 23.3971 75.9042 23.0611C76.6003 22.7264 77.1876 22.2521 77.6663 21.6395C78.145 21.0268 78.3843 20.2981 78.3843 19.4517V17.264L78.3857 17.2654Z" fill="white"/>
<path d="M97.9585 20.933C97.4757 21.1349 97.118 21.3561 96.8869 21.6009C96.6558 21.8429 96.5403 22.1665 96.5403 22.5717V22.8137H104.622V17.6099C103.759 18.2902 102.655 18.9236 101.308 19.5072L97.9585 20.933Z" fill="url(#paint0_linear_1_1170)"/>
<path d="M103.825 0.0526051L90.1618 5.29792C89.7243 5.46664 89.3667 5.99075 89.3667 6.46094V26.5364C89.3667 27.0066 89.7243 27.5321 90.1618 27.6994L103.825 32.9447C104.261 33.1135 104.622 32.8645 104.622 32.393V27.6621H91.0476V22.8095C91.0476 21.8387 91.2141 20.9841 91.5456 20.247C91.8771 19.5085 92.3998 18.8558 93.1137 18.2902C93.8276 17.7246 94.7575 17.1991 95.9047 16.7137L99.2541 15.2879C100.118 14.9256 100.747 14.49 101.14 13.9839C101.532 13.4791 101.729 12.843 101.729 12.0727C101.729 11.3661 101.492 10.7645 101.019 10.268C100.546 9.77297 99.858 9.52543 98.9529 9.52543C98.0478 9.52543 97.3325 9.78265 96.8703 10.2985C96.4068 10.8143 96.1757 11.5071 96.1757 12.377H90.745C90.745 10.9222 91.0573 9.62638 91.6818 8.49517C92.3049 7.36258 93.2251 6.47338 94.4411 5.82619C95.6585 5.17899 97.1619 4.8554 98.9529 4.8554C100.744 4.8554 102.216 5.16378 103.433 5.78055C103.866 5.99905 104.263 6.24797 104.622 6.52455V0.60438C104.622 0.132813 104.261 -0.116108 103.825 0.0526051Z" fill="url(#paint1_linear_1_1170)"/>
<path d="M105.286 5.52332V10.4367H109.389V27.6662H115V5.52332H105.286Z" fill="url(#paint2_linear_1_1170)"/>
</g>
<defs>
<linearGradient id="paint0_linear_1_1170" x1="88.2347" y1="9.04007" x2="115.524" y2="33.4709" gradientUnits="userSpaceOnUse">
<stop stop-color="#FFAE00"/>
<stop offset="0.46" stop-color="#3CAE66"/>
<stop offset="1" stop-color="#009086"/>
</linearGradient>
<linearGradient id="paint1_linear_1_1170" x1="89.8564" y1="7.22844" x2="117.147" y2="31.6593" gradientUnits="userSpaceOnUse">
<stop stop-color="#FFAE00"/>
<stop offset="0.46" stop-color="#3CAE66"/>
<stop offset="1" stop-color="#009086"/>
</linearGradient>
<linearGradient id="paint2_linear_1_1170" x1="95.221" y1="1.23634" x2="122.511" y2="25.6672" gradientUnits="userSpaceOnUse">
<stop stop-color="#FFAE00"/>
<stop offset="0.46" stop-color="#3CAE66"/>
<stop offset="1" stop-color="#009086"/>
</linearGradient>
<clipPath id="clip0_1_1170">
<rect width="115" height="33" fill="white"/>
</clipPath>
</defs>
</svg>
