<svg width="124" height="159" viewBox="0 0 124 159" fill="none" xmlns="http://www.w3.org/2000/svg">
<path d="M41.3896 100.86C39.0637 101.833 37.3407 102.899 36.2275 104.078C35.1142 105.244 34.5576 106.803 34.5576 108.755V109.922H73.4886V84.8485C69.3338 88.1267 64.0126 91.1784 57.5252 93.9902L41.3896 100.86Z" fill="url(#paint0_linear_129_653)"/>
<path d="M69.6517 0.254637L3.83017 25.5275C1.72292 26.3404 0 28.8657 0 31.1311V127.858C0 130.124 1.72292 132.656 3.83017 133.462L69.6517 158.735C71.7523 159.548 73.4885 158.348 73.4885 156.076V133.282H8.09767V109.902C8.09767 105.224 8.89948 101.106 10.4965 97.5549C12.0935 93.9969 14.6116 90.8519 18.0507 88.1267C21.4899 85.4016 25.9695 82.8696 31.496 80.5309L47.6317 73.6613C51.7932 71.9156 54.8215 69.8167 56.7167 67.3781C58.6053 64.946 59.5529 61.8811 59.5529 58.1697C59.5529 54.7649 58.4131 51.8665 56.1336 49.4745C53.854 47.0891 50.5407 45.8964 46.1805 45.8964C41.8202 45.8964 38.3744 47.1358 36.1479 49.6211C33.9147 52.1064 32.8015 55.4446 32.8015 59.6356H6.63982C6.63982 52.6261 8.14405 46.3828 11.1525 40.9325C14.1543 35.4754 18.5875 31.1911 24.4454 28.0728C30.3099 24.9545 37.5527 23.3954 46.1805 23.3954C54.8083 23.3954 61.8987 24.8812 67.7632 27.8529C69.8505 28.9057 71.759 30.105 73.4885 31.4376V2.91319C73.4885 0.641093 71.7523 -0.558253 69.6517 0.254637Z" fill="url(#paint1_linear_129_653)"/>
<path d="M76.6892 26.6136V50.2874H96.4562V133.302H123.486V26.6136H76.6892Z" fill="url(#paint2_linear_129_653)"/>
<defs>
<linearGradient id="paint0_linear_129_653" x1="-5.45353" y1="43.5577" x2="126.03" y2="161.249" gradientUnits="userSpaceOnUse">
<stop stop-color="#FFAE00"/>
<stop offset="0.46" stop-color="#3CAE66"/>
<stop offset="1" stop-color="#009086"/>
</linearGradient>
<linearGradient id="paint1_linear_129_653" x1="2.35906" y1="34.8291" x2="133.85" y2="152.52" gradientUnits="userSpaceOnUse">
<stop stop-color="#FFAE00"/>
<stop offset="0.46" stop-color="#3CAE66"/>
<stop offset="1" stop-color="#009086"/>
</linearGradient>
<linearGradient id="paint2_linear_129_653" x1="28.2027" y1="5.95824" x2="159.687" y2="123.649" gradientUnits="userSpaceOnUse">
<stop stop-color="#FFAE00"/>
<stop offset="0.46" stop-color="#3CAE66"/>
<stop offset="1" stop-color="#009086"/>
</linearGradient>
</defs>
</svg>
