<svg width="1600" height="823" viewBox="0 0 1600 823" fill="none" xmlns="http://www.w3.org/2000/svg">
<path d="M-138.516 156.258C-149.764 139.806 -159.657 122.553 -168.165 104.6C-182.458 74.3713 -194.709 31.6895 -172.042 -0.000205302L-160.923 7.96758C-179.702 34.2654 -168.515 71.8778 -155.787 98.7877C-125.255 163.423 -75.4303 218.678 -11.6916 258.621C52.0753 298.545 123.529 319.259 194.984 318.48C203.628 318.408 212.941 317.922 222.589 316.957C222.369 316.03 222.178 315.084 221.986 314.139C213.345 272.923 217.959 214.403 259.301 185.143C280.847 169.915 313.444 169.822 338.611 184.956C358.565 196.945 368.974 216.165 366.456 236.397C364.733 250.164 357.474 263.947 344.989 277.411C316.095 308.471 276.555 322.627 239.826 328.484C267.425 418.315 364.064 510.011 506.928 522.191C548.821 525.764 590.513 522.685 630.977 515.268C631.533 440.764 653.309 356.307 695.843 266.974C726.773 198.206 763.899 128.389 825.19 84.2886C856.827 61.5395 895.455 48.0481 933.978 46.3893C975.334 44.5743 1012.99 57.0888 1039.99 81.6155C1101.24 137.174 1094.81 237.304 1053.26 302.034C1011.08 367.728 940.386 408.856 870.319 443.511C805.973 475.332 728.186 509.593 644.714 526.58C645.751 573.203 655.703 615.427 674.667 651.821C715.836 730.924 797.139 781.179 916.295 801.246C1027.89 819.277 1145.92 803.132 1248.58 755.718C1250.25 754.95 1251.95 754.162 1253.7 753.336C1247.54 748.146 1241.69 742.497 1236.2 736.398C1202.95 698.425 1193.22 646.357 1211.84 606.75C1222.52 584.044 1244.27 566.273 1270.01 559.235C1292.58 553.077 1314.56 556.151 1331.92 567.924C1370.98 594.472 1372.92 651.2 1352.37 688.525C1335.31 719.524 1306.1 740.738 1279.4 755.513C1310.76 775.818 1349.08 785.064 1393.8 783.097C1444.28 780.882 1501.36 763.802 1554.45 735.003C1639.72 692.019 1691.81 643.531 1713.79 586.631L1726.54 591.584C1703.24 651.779 1649.02 702.643 1560.75 747.132C1506.06 776.784 1446.9 794.457 1394.36 796.752C1344.45 798.95 1300.67 787.226 1265.72 762.63C1261.77 764.591 1257.93 766.427 1254.24 768.119C1149.16 816.651 1028.3 833.199 914.037 814.715C790.399 793.904 705.787 741.232 662.523 658.096C642.909 620.448 632.477 576.978 631.132 529.117C590.296 536.415 548.206 539.395 505.782 535.771C390.701 525.962 260.969 452.585 226.036 330.294C215.216 331.48 204.814 332.008 195.184 332.091C121.094 332.891 47.0913 311.477 -18.9006 270.176C-67.1963 239.923 -107.773 201.162 -138.469 156.267L-138.516 156.258ZM346.926 210.618C343.299 205.313 338.142 200.557 331.602 196.622C314.141 186.158 286.42 182.668 267.196 196.267C231.221 221.692 227.578 274.123 235.356 311.291C235.609 312.568 235.908 313.854 236.208 315.14C270.895 309.809 308.184 296.779 334.953 267.999C345.483 256.7 351.529 245.444 352.879 234.582C353.972 226.009 351.855 217.766 346.935 210.571L346.926 210.618ZM1047.4 110.919C1042.46 103.695 1036.88 97.2373 1030.77 91.6861C989.478 54.2417 906.18 42.7854 833.15 95.3266C774.473 137.558 738.434 205.513 708.225 272.671C667.051 359.211 645.695 440.771 644.623 512.522C725.64 495.639 801.4 462.226 864.229 431.153C932.534 397.371 1001.33 357.412 1041.76 294.535C1083.94 228.841 1077.92 155.437 1047.45 110.881L1047.4 110.919ZM1339.08 594.206C1335.13 588.421 1330.14 583.303 1324.1 579.192C1310.12 569.702 1292.16 567.284 1273.49 572.382C1251.9 578.282 1232.96 593.679 1224.11 612.524C1207.75 647.27 1216.68 693.384 1246.3 727.256C1252.73 734.368 1259.61 740.849 1266.94 746.604C1293.43 732.674 1323.6 712.208 1340.31 681.905C1354.67 655.81 1355.92 618.765 1339.11 594.187L1339.08 594.206Z" fill="url(#paint0_linear_1_1187)"/>
<defs>
<linearGradient id="paint0_linear_1_1187" x1="-166.995" y1="38.1908" x2="1466.64" y2="1029.98" gradientUnits="userSpaceOnUse">
<stop stop-color="#25A273"/>
<stop offset="0.5" stop-color="#FFAA00"/>
<stop offset="1" stop-color="#FFAE00"/>
</linearGradient>
</defs>
</svg>
