<svg width="70" height="70" viewBox="0 0 70 70" fill="none" xmlns="http://www.w3.org/2000/svg">
<path d="M34.9375 0C15.5896 0 0 15.5896 0 34.9375C0 54.2854 15.5896 69.875 34.9375 69.875C54.2854 69.875 69.875 54.2854 69.875 34.9375C69.875 31.1792 69.3711 27.4314 68.0273 23.9355L63.6602 28.2188C64.1956 30.3708 64.5 32.5229 64.5 34.9375C64.5 51.3354 51.3354 64.5 34.9375 64.5C18.5396 64.5 5.375 51.3354 5.375 34.9375C5.375 18.5396 18.5396 5.375 34.9375 5.375C43 5.375 50.2437 8.5874 55.3457 13.6895L59.125 9.91016C52.9417 3.72681 44.3438 0 34.9375 0ZM65.2559 11.5059L34.9375 41.8242L23.4316 30.3184L19.5684 34.1816L33.0059 47.6191L34.9375 49.4668L36.8691 47.6191L69.1191 15.3691L65.2559 11.5059Z" fill="#25A273"/>
</svg>
